<svg width="100" height="100" viewBox="0 0 100 100" fill="none" xmlns="http://www.w3.org/2000/svg">
<path d="M85.5 27.6C86.3283 27.6 87 26.9732 87 26.2V20.6C87 19.8268 86.3283 19.2 85.5 19.2H21V16.4C21 15.6268 20.3285 15 19.5 15H13.5C12.6716 15 12 15.6268 12 16.4V30.4C12 31.1732 12.6716 31.8 13.5 31.8H19.5C20.3285 31.8 21 31.1732 21 30.4V27.6H25.5V37.4H13.5C12.6716 37.4 12 38.0268 12 38.8V83.6C12 84.3731 12.6716 85 13.5 85H85.5C86.3283 85 87 84.3731 87 83.6V38.8C87 38.0268 86.3283 37.4 85.5 37.4H73.5V27.6H85.5ZM18 29H15V17.8H18V29ZM21 22H84V24.8C71.5703 24.8 33.4175 24.8 21 24.8V22ZM37.5 37.4V27.6H61.5V37.4H37.5ZM28.5 27.6H34.5V37.4H28.5V27.6ZM84 82.2H15V40.2H84V82.2ZM70.5 37.4H64.5V27.6H70.5V37.4Z" fill="black"/>
<path d="M18 44.402C18 45.1752 18.6715 45.802 19.5 45.802H79.5C80.3283 45.802 81 45.1752 81 44.402C81 43.6287 80.3283 43.002 79.5 43.002H19.5C18.6715 43.002 18 43.6287 18 44.402Z" fill="black"/>
<path d="M75 51.3996C75.8283 51.3996 76.5 50.7727 76.5 49.9996C76.5 49.2264 75.8283 48.5996 75 48.5996H24C23.1715 48.5996 22.5 49.2264 22.5 49.9996C22.5 50.7727 23.1715 51.3996 24 51.3996H75Z" fill="black"/>
<path d="M79.5 54.1992H19.5C18.6715 54.1992 18 54.8261 18 55.5992C18 56.3723 18.6715 56.9992 19.5 56.9992H79.5C80.3283 56.9992 81 56.3723 81 55.5992C81 54.8261 80.3283 54.1992 79.5 54.1992Z" fill="black"/>
<path d="M75 62.5988C75.8283 62.5988 76.5 61.9719 76.5 61.1988C76.5 60.4257 75.8283 59.7988 75 59.7988H24C23.1715 59.7988 22.5 60.4257 22.5 61.1988C22.5 61.9719 23.1715 62.5988 24 62.5988H75Z" fill="black"/>
<path d="M79.5 65.3984H19.5C18.6715 65.3984 18 66.0254 18 66.7984C18 67.5715 18.6715 68.1984 19.5 68.1984H79.5C80.3283 68.1984 81 67.5715 81 66.7984C81 66.0254 80.3283 65.3984 79.5 65.3984Z" fill="black"/>
<path d="M75 73.8C75.8283 73.8 76.5 73.1731 76.5 72.4C76.5 71.6269 75.8283 71 75 71H24C23.1715 71 22.5 71.6269 22.5 72.4C22.5 73.1731 23.1715 73.8 24 73.8H75Z" fill="black"/>
<path d="M79.5 76.5996H19.5C18.6715 76.5996 18 77.2265 18 77.9996C18 78.7727 18.6715 79.3996 19.5 79.3996H79.5C80.3283 79.3996 81 78.7727 81 77.9996C81 77.2265 80.3283 76.5996 79.5 76.5996Z" fill="black"/>
</svg>
