<svg width="100" height="100" viewBox="0 0 100 100" fill="none" xmlns="http://www.w3.org/2000/svg">
<path d="M93.0675 40.888C87.8582 40.888 83.5476 36.8943 82.8481 31.7268C84.7164 33.634 87.2841 34.8139 90.116 34.8139C90.9321 34.8139 91.5917 34.1351 91.5917 33.2954C91.5917 32.4557 90.9321 31.7769 90.116 31.7769C86.0475 31.7769 82.7374 28.3709 82.7374 24.1843V24.1449C83.9741 25.1091 85.497 25.7029 87.1646 25.7029C87.9807 25.7029 88.6403 25.0241 88.6403 24.1843C88.6403 23.3446 87.9807 22.6658 87.1646 22.6658C84.7237 22.6658 82.7374 20.6219 82.7374 18.1103C82.7374 17.2706 82.0778 16.5918 81.2617 16.5918C80.4456 16.5918 79.786 17.2706 79.786 18.1103C79.786 20.6219 77.7997 22.6658 75.3588 22.6658C74.5427 22.6658 73.8831 23.3446 73.8831 24.1843C73.8831 25.0241 74.5427 25.7029 75.3588 25.7029C77.0264 25.7029 78.5493 25.1091 79.786 24.1449V24.1843C79.786 28.3709 76.4759 31.7769 72.4074 31.7769C71.5913 31.7769 70.9317 32.4557 70.9317 33.2954C70.9317 34.1351 71.5913 34.8139 72.4074 34.8139C75.2393 34.8139 77.807 33.634 79.6753 31.7268C78.9758 36.8943 74.6652 40.888 69.4559 40.888C68.6399 40.888 67.9802 41.5667 67.9802 42.4065C67.9802 43.2462 68.6399 43.925 69.4559 43.925C73.6263 43.925 77.3496 41.9327 79.786 38.8304V45.4435C79.786 46.2832 80.4456 46.962 81.2617 46.962C82.0778 46.962 82.7374 46.2832 82.7374 45.4435V38.8304C85.1738 41.9327 88.8971 43.925 93.0675 43.925C93.8835 43.925 94.5432 43.2462 94.5432 42.4065C94.5432 41.5667 93.8835 40.888 93.0675 40.888Z" fill="black"/>
<path d="M17.8058 38.8304V45.4435C17.8058 46.2832 18.4654 46.962 19.2815 46.962C20.0975 46.962 20.7572 46.2832 20.7572 45.4435V38.8304C23.1936 41.9327 26.9168 43.925 31.0872 43.925C31.9033 43.925 32.563 43.2462 32.563 42.4065C32.563 41.5667 31.9033 40.888 31.0872 40.888C25.8779 40.888 21.5674 36.8943 20.8679 31.7268C22.7361 33.634 25.3039 34.8139 28.1358 34.8139C28.9519 34.8139 29.6115 34.1351 29.6115 33.2954C29.6115 32.4557 28.9519 31.7769 28.1358 31.7769C24.0672 31.7769 20.7572 28.3709 20.7572 24.1843V24.1449C21.9938 25.1091 23.5168 25.7029 25.1844 25.7029C26.0004 25.7029 26.6601 25.0241 26.6601 24.1843C26.6601 23.3446 26.0004 22.6658 25.1844 22.6658C22.7435 22.6658 20.7572 20.6219 20.7572 18.1103C20.7572 17.2706 20.0975 16.5918 19.2815 16.5918C18.4654 16.5918 17.8058 17.2706 17.8058 18.1103C17.8058 20.6219 15.8194 22.6658 13.3786 22.6658C12.5625 22.6658 11.9029 23.3446 11.9029 24.1843C11.9029 25.0241 12.5625 25.7029 13.3786 25.7029C15.0462 25.7029 16.5691 25.1091 17.8058 24.1449V24.1843C17.8058 28.3709 14.4957 31.7769 10.4272 31.7769C9.61109 31.7769 8.95144 32.4557 8.95144 33.2954C8.95144 34.1351 9.61109 34.8139 10.4272 34.8139C13.2591 34.8139 15.8268 33.634 17.6951 31.7268C16.9956 36.8943 12.685 40.888 7.47572 40.888C6.65965 40.888 6 41.5667 6 42.4065C6 43.2462 6.65965 43.925 7.47572 43.925C11.6461 43.925 15.3693 41.9327 17.8058 38.8304Z" fill="black"/>
<path d="M38.4658 36.3332C42.6362 36.3332 46.3595 34.3409 48.7959 31.2386V37.8517C48.7959 38.6914 49.4555 39.3702 50.2716 39.3702C51.0877 39.3702 51.7473 38.6914 51.7473 37.8517V31.2386C54.1837 34.3409 57.907 36.3332 62.0773 36.3332C62.8934 36.3332 63.5531 35.6544 63.5531 34.8147C63.5531 33.9749 62.8934 33.2962 62.0773 33.2962C56.8681 33.2962 52.5575 29.3025 51.858 24.135C53.7262 26.0422 56.294 27.2221 59.1259 27.2221C59.942 27.2221 60.6016 26.5434 60.6016 25.7036C60.6016 24.8639 59.942 24.1851 59.1259 24.1851C55.0573 24.1851 51.7473 20.7791 51.7473 16.5926V16.5531C52.984 17.5173 54.5069 18.1111 56.1745 18.1111C56.9905 18.1111 57.6502 17.4323 57.6502 16.5926C57.6502 15.7528 56.9905 15.074 56.1745 15.074C53.7336 15.074 51.7473 13.0301 51.7473 10.5185C51.7473 9.67877 51.0877 9 50.2716 9C49.4555 9 48.7959 9.67877 48.7959 10.5185C48.7959 13.0301 46.8096 15.074 44.3687 15.074C43.5526 15.074 42.893 15.7528 42.893 16.5926C42.893 17.4323 43.5526 18.1111 44.3687 18.1111C46.0363 18.1111 47.5592 17.5173 48.7959 16.5531V16.5926C48.7959 20.7791 45.4858 24.1851 41.4173 24.1851C40.6012 24.1851 39.9416 24.8639 39.9416 25.7036C39.9416 26.5434 40.6012 27.2221 41.4173 27.2221C44.2492 27.2221 46.8169 26.0422 48.6852 24.135C47.9857 29.3025 43.6751 33.2962 38.4658 33.2962C37.6498 33.2962 36.9901 33.9749 36.9901 34.8147C36.9901 35.6544 37.6498 36.3332 38.4658 36.3332Z" fill="black"/>
<path d="M88.1593 69.7406H75.2291L67.7177 57.5925H76.3536C78.2454 57.5925 79.7861 56.0071 79.7861 54.0604V50.4949C79.7861 48.5482 78.2454 46.9629 76.3536 46.9629H25.6655C23.7737 46.9629 22.233 48.5482 22.233 50.4949V54.0604C22.233 56.0071 23.7737 57.5925 25.6655 57.5925H34.3015L26.79 69.7406H12.3841C10.4922 69.7406 8.95154 71.3259 8.95154 73.2726V76.8381C8.95154 78.7848 10.4922 80.3701 12.3841 80.3701H20.2142L16.1929 86.8739C15.6808 87.7015 15.6498 88.7477 16.1073 89.6072C16.5648 90.4667 17.4428 90.9997 18.3932 90.9997H24.5617C25.456 90.9997 26.2794 90.535 26.7635 89.7576L32.5675 80.3701H69.4516L75.2571 89.7591C75.7397 90.535 76.5616 90.9997 77.4574 90.9997H83.6259C84.5778 90.9997 85.4529 90.4652 85.9118 89.6072C86.3708 88.7493 86.3383 87.7015 85.8262 86.8724L81.8049 80.3701H88.1593C90.0512 80.3701 91.5918 78.7848 91.5918 76.8381V73.2726C91.5918 71.3259 90.0512 69.7406 88.1593 69.7406ZM71.7316 69.7406H66.3747L58.8619 57.5925H64.2187L71.7316 69.7406ZM62.8773 69.7406H39.1418L46.6532 57.5925H55.3644L62.8773 69.7406ZM25.6655 54.5554C25.3999 54.5554 25.1845 54.3337 25.1845 54.0604V50.4949C25.1845 50.2216 25.3999 49.9999 25.6655 49.9999H76.3536C76.6192 49.9999 76.8346 50.2216 76.8346 50.4949V54.0604C76.8346 54.3337 76.6192 54.5554 76.3536 54.5554H65.8391H53.4873H48.5333H36.1815H25.6655ZM37.8004 57.5925H43.1572L35.6444 69.7406H30.2875L37.8004 57.5925ZM24.3743 87.9627H19.0174L23.7132 80.3701H29.07L24.3743 87.9627ZM83.0017 87.9627H77.6448L72.9491 80.3701H78.3059L83.0017 87.9627ZM88.6404 76.8381C88.6404 77.1114 88.425 77.3331 88.1593 77.3331H79.9263H67.5745H34.4446H22.0928H12.3841C12.1184 77.3331 11.903 77.1114 11.903 76.8381V73.2726C11.903 72.9993 12.1184 72.7776 12.3841 72.7776H24.9114H37.2632H64.7544H77.1062H88.1578C88.425 72.7776 88.6404 72.9993 88.6404 73.2726V76.8381Z" fill="black"/>
</svg>
