<svg width="100" height="100" viewBox="0 0 100 100" fill="none" xmlns="http://www.w3.org/2000/svg">
<path d="M92.9773 50.42H85.5981V28.9584C87.4866 32.7423 90.2048 36.0513 93.5499 38.6384L95.3578 36.3036C89.1925 31.5764 85.5837 24.2448 85.5981 16.4758V15H76.7431V16.4758C76.7276 30.3258 65.5039 41.5495 51.654 41.565H48.7023C34.8524 41.5495 23.6287 30.3258 23.6132 16.4758V15H14.7582V16.4758C14.773 24.2446 11.1647 31.5762 5 36.3036L6.80789 38.6384C10.1525 36.0511 12.8702 32.7421 14.7582 28.9584V50.42H7.37904C6.56401 50.42 5.90321 51.0808 5.90321 51.8958V59.275C5.90321 60.09 6.56401 60.7508 7.37904 60.7508H14.7582V76.9849H13.2824C12.4673 76.9849 11.8065 77.6457 11.8065 78.4608V84.3641C11.8065 85.1791 12.4673 85.8399 13.2824 85.8399H25.089C25.9041 85.8399 26.5649 85.1791 26.5649 84.3641V78.4608C26.5649 77.6457 25.9041 76.9849 25.089 76.9849H23.6132V60.7508H76.7431V76.9849H75.2673C74.4523 76.9849 73.7915 77.6457 73.7915 78.4608V84.3641C73.7915 85.1791 74.4523 85.8399 75.2673 85.8399H87.074C87.889 85.8399 88.5498 85.1791 88.5498 84.3641V78.4608C88.5498 77.6457 87.889 76.9849 87.074 76.9849H85.5981V60.7508H92.9773C93.7923 60.7508 94.4531 60.09 94.4531 59.275V51.8958C94.4531 51.0808 93.7923 50.42 92.9773 50.42ZM79.6948 17.9517H82.6465V50.42H79.6948V17.9517ZM23.6132 28.9392C28.3454 38.4694 38.062 44.5023 48.7023 44.5166H51.654C62.2944 44.5023 72.0109 38.4694 76.7431 28.9392V50.42H23.6132V28.9392ZM17.7099 17.9517H20.6615V50.42H17.7099V17.9517ZM23.6132 82.8883H14.7582V79.9366H23.6132V82.8883ZM17.7099 76.9849V60.7508H20.6615V76.9849H17.7099ZM85.5981 82.8883H76.7431V79.9366H85.5981V82.8883ZM79.6948 76.9849V60.7508H82.6465V76.9849H79.6948ZM91.5015 57.7991H8.85487V53.3716H91.5015V57.7991Z" fill="black"/>
<path d="M39.8474 66.6543H28.0407V69.606H39.8474V66.6543Z" fill="black"/>
<path d="M56.0815 66.6543H45.7507V69.606H56.0815V66.6543Z" fill="black"/>
<path d="M72.3157 66.6543H63.4607V69.606H72.3157V66.6543Z" fill="black"/>
<path d="M48.7023 72.5576H36.8957V75.5093H48.7023V72.5576Z" fill="black"/>
<path d="M66.4123 72.5576H54.6057V75.5093H66.4123V72.5576Z" fill="black"/>
<path d="M54.6057 78.4609H45.7507V81.4126H54.6057V78.4609Z" fill="black"/>
<path d="M39.8473 78.4609H30.9924V81.4126H39.8473V78.4609Z" fill="black"/>
<path d="M69.364 78.4609H60.509V81.4126H69.364V78.4609Z" fill="black"/>
</svg>
