<svg width="100" height="100" viewBox="0 0 100 100" fill="none" xmlns="http://www.w3.org/2000/svg">
<path d="M54.7609 39.25C54.7343 39.2178 54.7062 39.1864 54.6761 39.1561C54.6461 39.1261 54.6146 39.098 54.5825 39.0714C53.305 37.8381 51.5686 37.0771 49.6569 37.0771C45.7428 37.0771 42.5585 40.2614 42.5585 44.1754C42.5585 46.0863 43.319 47.822 44.5512 49.0994C44.5783 49.1322 44.6068 49.1642 44.6375 49.1949C44.6683 49.2257 44.7001 49.2542 44.7329 49.2812C46.0102 50.5135 47.7458 51.2739 49.6567 51.2739C53.5709 51.2738 56.7551 48.0893 56.7551 44.1754C56.7551 42.2637 55.9942 40.5273 54.7609 39.25ZM45.1787 44.1754C45.1789 41.7063 47.1877 39.6975 49.6567 39.6975C50.4154 39.6975 51.1303 39.8878 51.7571 40.2221L45.7035 46.2758C45.3691 45.6489 45.1787 44.9339 45.1787 44.1754ZM49.6567 48.6532C48.8981 48.6532 48.1832 48.463 47.5564 48.1286L53.61 42.0751C53.9444 42.7018 54.1348 43.4167 54.1348 44.1754C54.1348 46.6446 52.126 48.6532 49.6567 48.6532Z" fill="black"/>
<path d="M84.4253 22.7526H75.7481C75.7468 22.7526 75.7458 22.7524 75.7447 22.7524C75.7435 22.7524 75.7425 22.7526 75.7414 22.7526H64.1716C64.1704 22.7526 64.1694 22.7524 64.1683 22.7524C64.1671 22.7524 64.1661 22.7526 64.165 22.7526H52.5952C52.594 22.7526 52.593 22.7524 52.5919 22.7524C52.5907 22.7524 52.5896 22.7526 52.5886 22.7526H41.0188C41.0176 22.7526 41.0165 22.7524 41.0155 22.7524C41.0143 22.7524 41.0132 22.7526 41.0122 22.7526H29.4424C29.4412 22.7526 29.4401 22.7524 29.4391 22.7524C29.4379 22.7524 29.4368 22.7526 29.4358 22.7526H17.866C17.8648 22.7526 17.8637 22.7524 17.8627 22.7524C17.8616 22.7524 17.8604 22.7526 17.8593 22.7526H14.9689C12.6508 22.7526 10.7648 24.6386 10.7648 26.9567V61.6854C10.7648 64.0036 12.6508 65.8894 14.9689 65.8894H17.8597C17.8609 65.8894 17.862 65.8896 17.863 65.8896C17.8641 65.8896 17.8653 65.8894 17.8663 65.8894H23.6476C23.6488 65.8894 23.6498 65.8896 23.6509 65.8896C23.6521 65.8896 23.6531 65.8894 23.6542 65.8894H29.4359C29.4372 65.8894 29.4382 65.8896 29.4393 65.8896C29.4405 65.8896 29.4415 65.8894 29.4426 65.8894H35.2238C35.225 65.8894 35.2261 65.8896 35.2271 65.8896C35.2282 65.8896 35.2294 65.8894 35.2304 65.8894H41.0124C41.0136 65.8894 41.0146 65.8896 41.0157 65.8896C41.0169 65.8896 41.0179 65.8894 41.019 65.8894H46.8002C46.8016 65.8894 46.8028 65.8896 46.8039 65.8896C46.8051 65.8896 46.8062 65.8894 46.8072 65.8894H52.5889C52.5902 65.8894 52.5912 65.8896 52.5923 65.8896C52.5935 65.8896 52.5945 65.8894 52.5956 65.8894H58.3768C58.378 65.8894 58.3791 65.8896 58.3801 65.8896C58.3812 65.8896 58.3824 65.8894 58.3834 65.8894H64.1654C64.1666 65.8894 64.1676 65.8896 64.1687 65.8896C64.1699 65.8896 64.1709 65.8894 64.172 65.8894H69.953C69.9543 65.8894 69.9553 65.8896 69.9564 65.8896C69.9576 65.8896 69.9586 65.8894 69.9597 65.8894H75.7416C75.7428 65.8894 75.7439 65.8896 75.7449 65.8896C75.7461 65.8896 75.7472 65.8894 75.7482 65.8894H81.5293C81.5305 65.8894 81.5316 65.8896 81.5326 65.8896C81.5337 65.8896 81.5349 65.8894 81.5359 65.8894H84.4253C86.7435 65.8894 88.6294 64.0034 88.6294 61.6854V26.9566C88.6294 24.6384 86.7435 22.7526 84.4253 22.7526ZM16.5528 63.269H14.9689C14.0956 63.2688 13.3852 62.5584 13.3852 61.6851V26.9566C13.3852 26.0833 14.0956 25.3728 14.9689 25.3728H16.5528V63.269ZM22.3407 63.269H19.1732V25.3726H22.3407V63.269ZM28.1293 34.183C28.1293 34.1858 28.1287 34.1886 28.1287 34.1914V54.4498C28.1287 54.4525 28.1291 54.4553 28.1293 54.4581V63.2687H24.9611V25.3726H28.1293V34.183ZM59.6905 25.373H62.8588V32.8815H59.6905V25.373ZM53.9028 25.373H57.0703V32.8815H53.9028V25.373ZM48.1141 25.373H51.2823V32.8815H48.1141V25.373ZM42.3262 25.373H45.4937V32.8815H42.3262V25.373ZM36.5376 25.373H39.7058V32.8815H36.5376V25.373ZM30.7496 25.373H33.9171V32.8815H30.7496V25.373ZM33.9171 63.2687H30.7496V55.7599H33.9171V63.2687ZM39.7057 63.2687H36.5375V55.7599H39.7057V63.2687ZM45.4937 63.2687H42.3262V55.7599H45.4937V63.2687ZM51.2823 63.2687H48.1141V55.7599H51.2823V63.2687ZM57.0703 63.2687H53.9028V55.7599H57.0703V63.2687ZM62.859 63.2687H59.6906V55.7599H62.859V63.2687ZM64.1689 53.1397C64.1676 53.1397 64.1666 53.1399 64.1655 53.1399H30.7496V53.1397V35.5019H41.0125C41.0137 35.5019 41.0148 35.5021 41.0158 35.5021C41.0171 35.5021 41.0181 35.5019 41.0192 35.5019H58.3768C58.378 35.5019 58.3791 35.5021 58.3801 35.5021C58.3812 35.5021 58.3824 35.5019 58.3834 35.5019H68.6453V53.1399H64.1722C64.171 53.1397 64.1699 53.1397 64.1689 53.1397ZM68.6467 63.2687H65.4792V55.7599H68.6467V63.2687ZM68.6467 32.8815H65.4792V25.373H68.6467V32.8815ZM74.4354 63.269H71.2671V25.3726H74.4354V63.269ZM80.2233 63.269H77.0558V25.3726H80.2233V63.269ZM86.0099 61.6854C86.0099 62.5587 85.2995 63.269 84.4262 63.269H82.8437V25.3726H84.4262C85.2995 25.3726 86.0099 26.0833 86.0099 26.9566V61.6854Z" fill="black"/>
<path d="M84.4496 15.788H82.5787L81.3797 10.9924C81.2341 10.4091 80.71 10 80.1087 10H62.7441C62.143 10 61.6189 10.4091 61.473 10.9924L60.2741 15.788H39.168L37.9691 10.9924C37.8232 10.4091 37.2991 10 36.698 10H19.3334C18.7323 10 18.2082 10.4091 18.0623 10.9924L16.8634 15.788H14.9923C9.48257 15.788 5 20.2706 5 25.7804V60.5091C5 66.0188 9.48257 70.5012 14.9923 70.5012H18.023V73.5319C18.023 74.2555 18.6096 74.8421 19.3332 74.8421H19.4703V82.3512H16.4395C15.7159 82.3512 15.1293 82.9376 15.1293 83.6614V88.1394H14.9923C14.2687 88.1394 13.6821 88.7258 13.6821 89.4496C13.6821 90.1733 14.2687 90.7598 14.9923 90.7598H32.3566C33.0802 90.7598 33.6668 90.1733 33.6668 89.4496C33.6668 88.7258 33.0802 88.1394 32.3566 88.1394H32.2196V83.6614C32.2196 82.9376 31.633 82.3512 30.9095 82.3512H27.8786V74.8421H28.0153C28.7389 74.8421 29.3255 74.2555 29.3255 73.5319V70.5012H37.4052C38.1287 70.5012 38.7153 69.9148 38.7153 69.191C38.7153 68.4673 38.1287 67.8809 37.4052 67.8809H14.9923C10.9274 67.8809 7.62036 64.5738 7.62036 60.5091V25.7805C7.62036 21.7156 10.9274 18.4086 14.9923 18.4086H38.1399C38.1413 18.4086 38.1425 18.4089 38.1439 18.4089C38.1458 18.4089 38.1476 18.4086 38.1495 18.4086H81.5506C81.552 18.4086 81.5532 18.4089 81.5546 18.4089C81.5565 18.4089 81.5583 18.4086 81.5602 18.4086H84.4494C88.5141 18.4086 91.8212 21.7156 91.8212 25.7805V60.5093C91.8212 64.5741 88.5141 67.881 84.4494 67.881H42.6227C41.8991 67.881 41.3125 68.4675 41.3125 69.1912C41.3125 69.915 41.8991 70.5014 42.6227 70.5014H70.116V73.5321C70.116 74.2557 70.7026 74.8423 71.4262 74.8423H71.5632V82.3514H68.5323C67.8087 82.3514 67.2221 82.9378 67.2221 83.6616V88.1396H67.0851C66.3616 88.1396 65.775 88.726 65.775 89.4498C65.775 90.1735 66.3616 90.7599 67.0851 90.7599H84.4494C85.173 90.7599 85.7596 90.1735 85.7596 89.4498C85.7596 88.726 85.173 88.1396 84.4494 88.1396H84.3126V83.6616C84.3126 82.9378 83.726 82.3514 83.0025 82.3514H79.9714V74.8423H80.1082C80.8317 74.8423 81.4184 74.2557 81.4184 73.5321V70.5014H84.4494C89.959 70.5014 94.4416 66.019 94.4416 60.5093V25.7804C94.4417 20.2708 89.9592 15.788 84.4496 15.788ZM29.5991 84.9716V88.1392H17.7495V84.9716H29.5991ZM22.0905 82.3512V74.8421H25.258V82.3512H22.0905ZM20.6432 70.5012H26.705V72.2218H20.6432V70.5012ZM19.5643 15.788L20.3564 12.6204H35.675L36.4669 15.788H19.5643ZM62.975 15.788L63.7671 12.6204H79.0857L79.8776 15.788H62.975ZM72.7364 70.5012H78.7982V72.2218H72.7364V70.5012ZM77.3512 74.8421V82.3512H74.1837V74.8421H77.3512ZM81.6924 84.9716V88.1392H69.8426V84.9716H81.6924Z" fill="black"/>
</svg>
