<svg width="100" height="100" viewBox="0 0 100 100" fill="none" xmlns="http://www.w3.org/2000/svg">
<path d="M49.5 90.9999C49.0531 90.9999 48.6904 90.6359 48.6904 90.1874V76.8508L34.0589 90.7768C33.7346 91.086 33.2218 91.0722 32.9141 90.7464C32.6065 90.421 32.6198 89.9067 32.9445 89.598L48.6904 74.6113V41.6129H23.8092C23.6926 41.6129 23.5821 41.5881 23.4821 41.5439C23.3874 41.5016 23.2991 41.4411 23.2234 41.3611C23.2145 41.3517 23.2056 41.342 23.1971 41.3322C23.1344 41.2595 23.087 41.1791 23.0538 41.0942C23.0538 41.0942 23.0538 41.093 23.0534 41.0921C23.0247 41.0166 23.0065 40.9358 23.0012 40.8517V40.8508V40.8496C23.0004 40.8322 23 40.8147 23 40.7972V16.1625C23 15.714 23.3627 15.35 23.8096 15.35H37.2061V9.81244C37.2061 9.36397 37.5688 9 38.0157 9H60.9843C61.4312 9 61.7939 9.36397 61.7939 9.81244V15.35H75.1904C75.6373 15.35 76 15.714 76 16.1625V40.798C76 40.8098 76 40.822 75.9996 40.8342C75.9992 40.835 75.9996 40.8354 75.9996 40.8362C75.9955 40.9288 75.9761 41.0166 75.9441 41.0986C75.9073 41.1925 75.8518 41.281 75.7786 41.359V41.3594C75.7782 41.3598 75.7778 41.3603 75.777 41.3611C75.7765 41.3619 75.7757 41.3623 75.7753 41.3627L75.7749 41.3635C75.6984 41.4435 75.6094 41.5045 75.5143 41.5455C75.4155 41.589 75.3062 41.6129 75.1912 41.6129H50.3104V74.6113L65.9924 89.5367C66.3166 89.8454 66.3304 90.3597 66.0227 90.685C65.7151 91.0108 65.203 91.0246 64.878 90.7155L50.3104 76.8504V90.187C50.3096 90.6363 49.9473 90.9999 49.5 90.9999ZM61.7939 39.988H73.1806L61.7939 29.0006V39.988ZM38.8253 39.988H60.1747V10.6249H38.8253V39.988ZM25.8602 39.988H37.2061V29.3386L25.8602 39.988ZM24.6188 16.9749V38.9282L37.2061 27.1141V16.9749H24.6188ZM61.7939 26.7469L74.3808 38.8925V16.9749H61.7939V26.7469ZM54.8501 22.8529H44.1713C43.7245 22.8529 43.3618 22.4889 43.3618 22.0405C43.3618 21.592 43.7245 21.228 44.1713 21.228H54.8501C55.297 21.228 55.6597 21.592 55.6597 22.0405C55.6597 22.4889 55.2974 22.8529 54.8501 22.8529ZM57.4812 18.8557H41.5402C41.0933 18.8557 40.7306 18.4917 40.7306 18.0433C40.7306 17.5948 41.0933 17.2308 41.5402 17.2308H57.4812C57.9281 17.2308 58.2908 17.5948 58.2908 18.0433C58.2908 18.4917 57.9285 18.8557 57.4812 18.8557Z" fill="black"/>
</svg>
