<svg width="100" height="100" viewBox="0 0 100 100" fill="none" xmlns="http://www.w3.org/2000/svg">
<path d="M91.9536 50.3826H85.5659V47.0482H85.6641C87.344 47.0482 88.7106 45.6845 88.7106 44.008V37.7315C88.7106 36.0551 87.344 34.6913 85.6641 34.6913H85.5659V31.3569H85.6641C87.344 31.3569 88.7106 29.9931 88.7106 28.3167V22.0402C88.7106 20.3638 87.344 19 85.6641 19H13.3359C11.656 19 10.2894 20.3638 10.2894 22.0402V28.3167C10.2894 29.9931 11.656 31.3569 13.3359 31.3569H13.4341V34.6913H13.3359C11.656 34.6913 10.2894 36.0551 10.2894 37.7315V44.008C10.2894 45.6845 11.656 47.0482 13.3359 47.0482H13.4341V50.3826H7.04644C5.36657 50.3826 4 51.7464 4 53.4228V56.5611C4 58.2375 5.36657 59.6013 7.04644 59.6013H10.2894V77.0579H10.1911C9.37686 77.0579 8.71706 77.7165 8.71706 78.5289C8.71706 79.3414 9.37686 80 10.1911 80H19.6253C20.4396 80 21.0994 79.3414 21.0994 78.5289C21.0994 77.7165 20.4396 77.0579 19.6253 77.0579H19.527V59.6013H79.473V77.0579H79.3747C78.5604 77.0579 77.9006 77.7165 77.9006 78.5289C77.9006 79.3414 78.5604 80 79.3747 80H88.8089C89.6231 80 90.2829 79.3414 90.2829 78.5289C90.2829 77.7165 89.6231 77.0579 88.8089 77.0579H88.7106V59.6013H91.9536C93.6334 59.6013 95 58.2375 95 56.5611V53.4228C95 51.7464 93.6334 50.3826 91.9536 50.3826ZM82.6177 50.3826H79.2765V47.0482H82.6177V50.3826ZM22.6717 50.3826V47.0482H76.3283V50.3826H22.6717ZM82.6177 34.6913H79.2765V31.3569H82.6177V34.6913ZM22.6717 34.6913V31.3569H76.3283V34.6913H22.6717ZM13.2376 28.3167V22.0402C13.2376 21.9861 13.2818 21.9421 13.3359 21.9421H85.6641C85.7182 21.9421 85.7624 21.9861 85.7624 22.0402V28.3167C85.7624 28.3709 85.7182 28.4148 85.6641 28.4148H13.3359C13.2818 28.4148 13.2376 28.3709 13.2376 28.3167ZM16.3823 31.3569H19.7235V34.6913H16.3823V31.3569ZM13.2376 44.008V37.7315C13.2376 37.6774 13.2818 37.6334 13.3359 37.6334H85.6641C85.7182 37.6334 85.7624 37.6774 85.7624 37.7315V44.008C85.7624 44.0622 85.7182 44.1061 85.6641 44.1061H13.3359C13.2818 44.1061 13.2376 44.0622 13.2376 44.008ZM16.3823 47.0482H19.7235V50.3826H16.3823V47.0482ZM16.5788 77.0579H13.2376V59.6013H16.5788V77.0579ZM85.7624 77.0579H82.4212V59.6013H85.7624V77.0579ZM92.0518 56.5611C92.0518 56.6152 92.0076 56.6592 91.9536 56.6592H7.04644C6.99239 56.6592 6.94816 56.6152 6.94816 56.5611V53.4228C6.94816 53.3687 6.99239 53.3248 7.04644 53.3248H91.9536C92.0076 53.3248 92.0518 53.3687 92.0518 53.4228V56.5611Z" fill="black"/>
</svg>
