<svg width="100" height="100" viewBox="0 0 100 100" fill="none" xmlns="http://www.w3.org/2000/svg">
<path d="M93.4851 66.9349L86.0515 60.9217C85.8043 60.722 85.4973 60.6129 85.1809 60.6129H67.4334C66.6636 60.6129 66.0397 61.2438 66.0397 62.0221C66.0397 62.8005 66.6638 63.4314 67.4334 63.4314H84.6919L90.3832 68.0351L84.6919 72.6388H39.0002V63.4312H61.3935C62.1633 63.4312 62.7872 62.8003 62.7872 62.022C62.7872 61.2436 62.1631 60.6127 61.3935 60.6127H56.8406V54.4117H61.3935C62.1633 54.4117 62.7872 53.7808 62.7872 53.0024V40.9763C62.7872 40.1978 62.1631 39.5671 61.3935 39.5671H56.8406V33.366H85.1807C85.4971 33.366 85.8041 33.257 86.0513 33.0572L93.4849 27.044C94.1716 26.4887 94.1716 25.3984 93.4849 24.8431L86.0513 18.8299C85.8041 18.6302 85.4971 18.5211 85.1807 18.5211H67.5264C66.7566 18.5211 66.1327 19.152 66.1327 19.9303C66.1327 20.7087 66.7568 21.3396 67.5264 21.3396H84.6922L90.3835 25.9433L84.6922 30.547H39.0002V21.3397H61.3935C62.1633 21.3397 62.7872 20.7089 62.7872 19.9305C62.7872 19.1521 62.1631 18.5213 61.3935 18.5213H56.8406V13.9175C56.8406 13.5976 56.7328 13.2872 56.5351 13.037L50.5883 5.52062C50.0389 4.82646 48.9611 4.82646 48.4116 5.52062L42.4648 13.037C42.2671 13.287 42.1593 13.5974 42.1593 13.9175V18.5213H37.6064C36.8366 18.5213 36.2126 19.1521 36.2126 19.9305V31.9566C36.2126 32.7351 36.8367 33.3658 37.6064 33.3658H42.1593V39.5669H13.8192C13.5028 39.5669 13.1958 39.6759 12.9486 39.8757L5.51501 45.8889C4.82833 46.4442 4.82833 47.5346 5.51501 48.0898L12.9486 54.103C13.1958 54.3027 13.5028 54.4118 13.8192 54.4118H42.1593V60.6129H37.6064C36.8366 60.6129 36.2126 61.2438 36.2126 62.0221V74.0482C36.2126 74.8268 36.8367 75.4575 37.6064 75.4575H42.1593V93.5908C42.1593 94.3693 42.7834 95 43.553 95H55.4465C56.2163 95 56.8402 94.3691 56.8402 93.5908V75.4576H85.1804C85.4968 75.4576 85.8038 75.3487 86.051 75.1488L93.4845 69.1357C94.1717 68.5809 94.1717 67.4902 93.4851 66.9349ZM44.9471 14.412L49.5 8.65727L54.053 14.412V18.5214H44.9469V14.412H44.9471ZM54.0532 60.6131H44.9471V54.412H54.0532V60.6131ZM44.9471 33.3662H54.0532V39.5672H44.9471V33.3662ZM14.3082 51.5935L8.6169 46.9898L14.3082 42.3861H59.9998V51.5937L14.3082 51.5935ZM54.0532 92.1819H44.9471V75.458H54.0532V92.1819Z" fill="black"/>
</svg>
