<svg width="100" height="100" viewBox="0 0 100 100" fill="none" xmlns="http://www.w3.org/2000/svg">
<path d="M91.8451 32.8378H32.1517V27.4843C32.1517 26.6646 31.4873 26 30.6674 26H8.97675C8.15682 26 7.49246 26.6646 7.49246 27.4843V71.0314H4.48429C3.66437 71.0314 3 71.696 3 72.5157C3 73.3354 3.66437 74 4.48429 74H35.1596C35.9796 74 36.6439 73.3354 36.6439 72.5157C36.6439 71.696 35.9796 71.0314 35.1596 71.0314H32.1517V42.6435H91.8451C94.5485 42.6435 96.7478 40.4441 96.7478 37.7407C96.7478 35.0374 94.5485 32.8378 91.8451 32.8378ZM26.958 35.8064H37.7362L33.8677 39.6747H26.958C27.1154 39.0556 27.1997 38.4079 27.1997 37.7405C27.1997 37.0734 27.1156 36.4255 26.958 35.8064ZM41.9345 35.8064H46.1054L42.2371 39.6747H38.0661L41.9345 35.8064ZM50.3038 35.8064H59.0795L55.2112 39.6747H46.4355L50.3038 35.8064ZM63.2779 35.8064H67.4489L63.5805 39.6747H59.4096L63.2779 35.8064ZM71.6473 35.8064H80.4228L76.5546 39.6747H67.7788L71.6473 35.8064ZM84.621 35.8064H88.792L84.9236 39.6747H80.7527L84.621 35.8064ZM29.1831 71.0314H10.461V28.9686H29.1831V32.8378H25.4738C24.034 31.043 21.8246 29.8908 19.35 29.8908C15.0218 29.8908 11.5004 33.4122 11.5004 37.7405C11.5004 42.0689 15.0218 45.5903 19.35 45.5903C21.8246 45.5903 24.034 44.4381 25.4738 42.6433H29.1829L29.1831 71.0314ZM24.2311 37.7407C24.2311 40.4323 22.0415 42.6219 19.35 42.6219C16.6584 42.6219 14.469 40.4321 14.469 37.7407C14.469 35.0494 16.6584 32.8596 19.35 32.8596C22.0415 32.8596 24.2311 35.0492 24.2311 37.7407ZM91.8451 39.6749H89.1221L92.7598 36.0372C93.3662 36.3641 93.7793 37.0049 93.7793 37.7407C93.7793 38.8071 92.9114 39.6749 91.8451 39.6749Z" fill="black"/>
<path d="M23.8791 47.6251H15.7649C14.945 47.6251 14.2806 48.2897 14.2806 49.1094C14.2806 49.9291 14.945 50.5937 15.7649 50.5937H23.8791C24.699 50.5937 25.3633 49.9291 25.3633 49.1094C25.3633 48.2897 24.699 47.6251 23.8791 47.6251Z" fill="black"/>
</svg>
