<svg width="100" height="100" viewBox="0 0 100 100" fill="none" xmlns="http://www.w3.org/2000/svg">
<path d="M94.4828 38.9295L50.1852 8.21454C49.773 7.92849 49.2266 7.92849 48.8144 8.21454L4.51716 38.9295C4.08508 39.2289 3.8979 39.7744 4.05502 40.276C4.21194 40.7776 4.67689 41.119 5.20256 41.119H10.9705V89.5962H6.51243C5.84827 89.5962 5.30998 90.1344 5.30998 90.7981C5.30998 91.4617 5.84827 92 6.51243 92H92.4876C93.1517 92 93.69 91.4617 93.69 90.7981C93.69 90.1344 93.1517 89.5962 92.4876 89.5962H88.0295V41.119H93.7974C94.3233 41.119 94.7881 40.7776 94.945 40.276C95.1021 39.7744 94.9149 39.2291 94.4828 38.9295ZM13.3754 89.5962V41.119H17.584V89.5962H13.3754ZM40.6917 22.6235H58.3079L63.9416 26.5297H35.0582L40.6917 22.6235ZM44.1585 20.2197L49.4998 16.5162L54.8411 20.2197H44.1585ZM31.5913 28.9335H67.4085L73.0422 32.8398H25.9576L31.5913 28.9335ZM22.4908 35.2436H76.509L81.5158 38.7151H17.4842L22.4908 35.2436ZM33.8682 69.6985V68.2962H65.1318V69.6985H33.8682ZM66.3343 72.1023C66.9982 72.1023 67.5367 71.5641 67.5367 70.9004V67.0943C67.5367 66.4307 66.9982 65.8924 66.3343 65.8924H32.6657C32.0018 65.8924 31.4633 66.4307 31.4633 67.0943V70.9004C31.4633 71.5641 32.0018 72.1023 32.6657 72.1023H46.3937V89.5962H19.9889V54.7398L33.6156 41.119H65.3844L79.0111 54.7398V89.5962H52.6063V72.1023H66.3343ZM22.988 41.119L19.9889 44.1167V41.119H22.988ZM19.9889 47.5161L26.3889 41.119H30.2147L19.9889 51.3404V47.5161ZM72.6111 41.119L79.0111 47.5161V51.3404L68.7853 41.119H72.6111ZM79.0111 44.1167L76.012 41.119H79.0111V44.1167ZM48.7986 89.5962V72.1023H50.2014V89.5962H48.7986ZM85.6246 89.5962H81.416V41.119H85.6246V89.5962ZM85.735 38.7151L50.1852 14.0657C49.773 13.7796 49.2266 13.7796 48.8144 14.0657L13.2648 38.7151H9.04559L49.5 10.665L89.9544 38.7151H85.735Z" fill="black"/>
</svg>
