<svg width="100" height="100" viewBox="0 0 100 100" fill="none" xmlns="http://www.w3.org/2000/svg">
<path d="M88.5668 9H11.6522C10.1895 9 9 10.1895 9 11.6522V88.5668C9 90.0295 10.1895 91.219 11.6522 91.219H72.6534C73.3868 91.219 73.9795 90.6249 73.9795 89.8929C73.9795 89.1609 73.3868 88.5668 72.6534 88.5668H62.689C57.789 82.4282 59.5143 75.7937 61.0221 72.3338C62.1016 69.862 62.9012 67.8118 63.5377 65.881C65.2776 60.611 67.349 53.5985 67.349 50.1095C67.349 44.0624 65.1543 35.7291 54.6926 30.3637C53.1476 29.5707 52.1782 28.4461 51.7274 26.9237C50.2726 22.0105 54.6103 14.4556 56.0346 11.9718C56.1075 11.8445 56.1592 11.7543 56.2176 11.6522H88.5655V88.5668H81.9349C81.2016 88.5668 80.6088 89.1609 80.6088 89.8929C80.6088 90.6249 81.2016 91.219 81.9349 91.219H88.5655C90.0282 91.219 91.2177 90.0295 91.2177 88.5668V11.6522C91.2177 10.1895 90.0295 9 88.5668 9ZM11.6522 11.6522H37.9703C34.2333 14.7036 28.8917 20.5067 28.8944 28.8135C28.8811 29.0296 28.6636 34.1736 35.6456 40.0801C38.7938 42.7456 40.6305 46.4547 40.8135 50.5259C41.0071 54.8 39.3746 58.9189 36.2171 62.1214L35.9108 62.4331C26.4888 71.8551 22.7452 81.8514 22.3062 88.5668H11.6522V11.6522ZM49.1852 27.677C49.8443 29.9009 51.2897 31.5983 53.4845 32.7242C62.7527 37.4783 64.6981 44.8024 64.6981 50.1095C64.6981 52.5562 63.3932 57.862 61.0221 65.0495C60.4108 66.9008 59.639 68.878 58.5927 71.273C57.2838 74.2726 55.0082 81.5464 59.444 88.5668H24.9757C25.2886 84.7502 27.1678 74.9264 37.7859 64.3082L38.1055 63.9833C41.7868 60.2477 43.6898 55.4259 43.463 50.4052C43.2455 45.5875 41.076 41.202 37.3576 38.0551C31.4843 33.0849 31.5413 28.9912 31.5439 28.8904C31.5439 18.8318 40.8479 12.6747 42.5202 11.6509H53.1675C51.1837 15.181 47.5766 22.2452 49.1852 27.677Z" fill="black"/>
<path d="M67.349 32.8698H80.6101C83.5355 32.8698 85.9146 30.4908 85.9146 27.5654C85.9146 26.2499 85.4319 24.9994 84.5686 24.0353C84.5818 23.8868 84.5884 23.7369 84.5884 23.5871C84.5884 20.6616 82.2094 18.2826 79.284 18.2826C79.0533 18.2826 78.8238 18.2972 78.5984 18.3264C77.6741 16.6926 75.9183 15.6304 73.9795 15.6304C72.0408 15.6304 70.285 16.6926 69.362 18.3264C69.1353 18.2972 68.9058 18.2826 68.6751 18.2826C65.7497 18.2826 63.3706 20.6616 63.3706 23.5871C63.3706 23.7369 63.3773 23.8868 63.3905 24.0353C62.5286 25.0007 62.0445 26.2499 62.0445 27.5654C62.0445 30.4908 64.4236 32.8698 67.349 32.8698ZM65.6529 25.5272C66.0401 25.2049 66.2112 24.6917 66.0945 24.2024C66.0481 24.0008 66.0229 23.7939 66.0229 23.5871C66.0229 22.1243 67.2124 20.9348 68.6751 20.9348C69.0133 20.9348 69.3421 20.9972 69.6511 21.1205C70.0025 21.2597 70.3964 21.2438 70.7332 21.0741C71.07 20.9043 71.3207 20.6006 71.4201 20.236C71.7331 19.0862 72.7847 18.2826 73.9795 18.2826C75.1744 18.2826 76.2247 19.0849 76.5376 20.2346C76.6358 20.5993 76.8864 20.9043 77.2232 21.0727C77.56 21.2412 77.9566 21.2597 78.3053 21.1205C78.617 20.9972 78.9458 20.9348 79.284 20.9348C80.7467 20.9348 81.9362 22.1243 81.9362 23.5871C81.9362 23.7555 81.9203 23.9239 81.8885 24.0896C81.7373 24.5631 81.8593 25.1041 82.2399 25.4675C82.2731 25.4993 82.3089 25.5298 82.3447 25.5577C82.9282 26.0629 83.2623 26.7909 83.2623 27.5641C83.2623 29.0268 82.0728 30.2163 80.6101 30.2163H67.349C65.8863 30.2163 64.6968 29.0268 64.6968 27.5641C64.6968 26.7737 65.0455 26.0311 65.6529 25.5258V25.5272Z" fill="black"/>
<path d="M19.6089 56.7404H32.87C35.7954 56.7404 38.1745 54.3614 38.1745 51.436C38.1745 50.1205 37.6918 48.87 36.8285 47.9059C36.8417 47.7574 36.8484 47.6075 36.8484 47.4577C36.8484 44.5323 34.4693 42.1532 31.5439 42.1532C31.3132 42.1532 31.0838 42.1678 30.8583 42.197C29.934 40.5632 28.1782 39.501 26.2395 39.501C24.3007 39.501 22.5449 40.5632 21.6219 42.197C21.3952 42.1678 21.1658 42.1532 20.935 42.1532C18.0096 42.1532 15.6306 44.5323 15.6306 47.4577C15.6306 47.6075 15.6372 47.7574 15.6504 47.9059C14.7885 48.8713 14.3044 50.1205 14.3044 51.436C14.3044 54.3614 16.6835 56.7404 19.6089 56.7404ZM17.9128 49.3978C18.3 49.0755 18.4711 48.5623 18.3544 48.073C18.308 47.8714 18.2828 47.6645 18.2828 47.4577C18.2828 45.995 19.4723 44.8054 20.935 44.8054C21.2732 44.8054 21.602 44.8678 21.911 44.9911C22.2624 45.1303 22.655 45.1131 22.9931 44.9447C23.3313 44.7763 23.5806 44.4712 23.6801 44.1066C23.993 42.9568 25.0446 42.1532 26.2395 42.1532C27.4343 42.1532 28.4846 42.9555 28.7975 44.1052C28.8957 44.4699 29.1463 44.7749 29.4831 44.9433C29.8213 45.1118 30.2165 45.129 30.5652 44.9911C30.8769 44.8678 31.2058 44.8054 31.5439 44.8054C33.0066 44.8054 34.1961 45.995 34.1961 47.4577C34.1961 47.6261 34.1802 47.7945 34.1484 47.9603C33.9972 48.4337 34.1192 48.9747 34.4998 49.3381C34.533 49.3699 34.5688 49.4004 34.6046 49.4283C35.1881 49.9335 35.5223 50.6615 35.5223 51.4347C35.5223 52.8974 34.3327 54.0869 32.87 54.0869H19.6089C18.1462 54.0869 16.9567 52.8974 16.9567 51.4347C16.9567 50.6443 17.3054 49.903 17.9128 49.3978Z" fill="black"/>
<path d="M67.349 84.5886H80.6101C83.5355 84.5886 85.9146 82.2095 85.9146 79.2841C85.9146 77.9686 85.4319 76.7181 84.5686 75.754C84.5818 75.6055 84.5884 75.4557 84.5884 75.3058C84.5884 72.3804 82.2094 70.0013 79.284 70.0013C79.0533 70.0013 78.8238 70.0159 78.5984 70.0451C77.6741 68.4113 75.9183 67.3491 73.9795 67.3491C72.0408 67.3491 70.285 68.4113 69.362 70.0451C69.1353 70.0159 68.9058 70.0013 68.6751 70.0013C65.7497 70.0013 63.3706 72.3804 63.3706 75.3058C63.3706 75.4557 63.3773 75.6055 63.3905 75.754C62.5286 76.7194 62.0445 77.9686 62.0445 79.2841C62.0445 82.2095 64.4236 84.5886 67.349 84.5886ZM65.6529 77.2459C66.0401 76.9237 66.2112 76.4105 66.0945 75.9211C66.0481 75.7195 66.0229 75.5127 66.0229 75.3058C66.0229 73.8431 67.2124 72.6536 68.6751 72.6536C69.0133 72.6536 69.3421 72.7159 69.6511 72.8392C70.0025 72.9785 70.3964 72.9612 70.7332 72.7928C71.0714 72.6244 71.3207 72.3194 71.4201 71.9547C71.7331 70.805 72.7847 70.0013 73.9795 70.0013C75.1744 70.0013 76.2247 70.8036 76.5376 71.9534C76.6358 72.3181 76.8864 72.6231 77.2232 72.7915C77.56 72.9599 77.9566 72.9771 78.3053 72.8392C78.617 72.7159 78.9458 72.6536 79.284 72.6536C80.7467 72.6536 81.9362 73.8431 81.9362 75.3058C81.9362 75.4742 81.9203 75.6426 81.8885 75.8084C81.7373 76.2818 81.8593 76.8229 82.2399 77.1862C82.2731 77.2181 82.3089 77.2486 82.3447 77.2764C82.9282 77.7817 83.2623 78.5097 83.2623 79.2828C83.2623 80.7455 82.0728 81.935 80.6101 81.935H67.349C65.8863 81.935 64.6968 80.7455 64.6968 79.2828C64.6968 78.4925 65.0455 77.7512 65.6529 77.2459Z" fill="black"/>
<path d="M80.6101 44.8052C78.6621 44.8052 76.9182 45.8846 75.9966 47.5277C75.7685 47.4972 75.543 47.4574 75.3057 47.4574C72.3803 47.4574 70.0012 49.8364 70.0012 52.7619C70.0012 54.2246 71.1907 55.4141 72.6534 55.4141H83.2623C84.725 55.4141 85.9146 54.2246 85.9146 52.7619V50.1096C85.9146 47.1842 83.5355 44.8052 80.6101 44.8052ZM75.3057 50.1096C76.7684 50.1096 77.9579 51.2992 77.9579 52.7619H72.6534C72.6534 51.2992 73.843 50.1096 75.3057 50.1096ZM83.2623 52.7619H80.6101C80.6101 51.0353 79.768 49.5129 78.487 48.5435C78.9763 47.8831 79.7521 47.4574 80.6101 47.4574C82.0728 47.4574 83.2623 48.6469 83.2623 50.1096V52.7619Z" fill="black"/>
<path d="M24.9134 68.6755C24.9134 65.7501 22.5343 63.3711 19.6089 63.3711C16.6835 63.3711 14.3044 65.7501 14.3044 68.6755C14.3044 70.1383 15.494 71.3278 16.9567 71.3278H22.2611C23.7238 71.3278 24.9134 70.1383 24.9134 68.6755ZM19.6089 66.0233C21.0716 66.0233 22.2611 67.2128 22.2611 68.6755H16.9567C16.9567 67.2128 18.1462 66.0233 19.6089 66.0233Z" fill="black"/>
</svg>
