<svg width="100" height="100" viewBox="0 0 100 100" fill="none" xmlns="http://www.w3.org/2000/svg">
<path d="M90.7122 74.1746H90.0247V31.7928C90.0247 31.482 89.922 31.1797 89.7318 30.9329L84.0668 23.5528C83.5337 22.8559 82.3593 22.8559 81.8262 23.5528L76.1612 30.9329C75.9719 31.1797 75.8683 31.482 75.8683 31.7928V39.2652H70.0676V31.7928C70.0676 31.482 69.9649 31.1797 69.7756 30.9329L64.1116 23.5528C63.8441 23.2044 63.4297 23 62.9908 23C62.5519 23 62.1375 23.2044 61.871 23.5519L56.205 30.932C56.0157 31.1787 55.9121 31.4811 55.9121 31.7928V39.2652H46.946V31.7928C46.946 31.482 46.8433 31.1797 46.6531 30.9329L40.9881 23.5528C40.455 22.8559 39.2806 22.8559 38.7475 23.5528L33.0825 30.9329C32.8932 31.1797 32.7896 31.482 32.7896 31.7928V39.2652H25.5357V31.7928C25.5357 31.482 25.433 31.1797 25.2437 30.9329L19.5796 23.5528C19.3122 23.2044 18.8978 23 18.4589 23C18.02 23 17.6056 23.2044 17.3391 23.5528L11.674 30.9329C11.4847 31.1797 11.3811 31.482 11.3811 31.7928V74.1746H9.41273C8.6329 74.1746 8 74.8065 8 75.5873C8 76.368 8.6329 77 9.41273 77H90.7122C91.4921 77 92.125 76.368 92.125 75.5873C92.125 74.8065 91.493 74.1746 90.7122 74.1746ZM82.9469 26.7324L87.1993 32.2722V74.1736H78.6956V32.2722L82.9469 26.7324ZM70.0676 59.6621H75.8701V64.8487H70.0676V59.6621ZM75.8701 56.8366H70.0676V50.1027H75.8701V56.8366ZM70.0676 67.6741H75.8701V74.1746H70.0676V67.6741ZM75.8701 42.0906V47.2772H70.0676V42.0906H75.8701ZM62.9908 26.7324L67.2422 32.2722V74.1736H58.7375V32.2722L62.9908 26.7324ZM46.9469 59.6621H55.913V64.8487H46.9469V59.6621ZM55.9121 56.8366H46.946V50.1027H55.9121V56.8366ZM46.9469 67.6741H55.913V74.1746H46.9469V67.6741ZM55.9121 42.0906V47.2772H46.946V42.0906H55.9121ZM39.8692 26.7324L44.1215 32.2722V74.1736H35.6178V32.2722L39.8692 26.7324ZM25.5376 59.6621H32.7914V64.8487H25.5376V59.6621ZM32.7914 56.8366H25.5376V50.1027H32.7914V56.8366ZM25.5376 67.6741H32.7914V74.1746H25.5376V67.6741ZM32.7914 42.0906V47.2772H25.5376V42.0906H32.7914ZM14.2094 32.2731L18.4617 26.7334L22.7131 32.2731V74.1746H14.2103L14.2094 32.2731Z" fill="black"/>
<path d="M18.8111 48.3629C19.5909 48.3629 20.2238 47.7309 20.2238 46.9502C20.2238 46.1694 19.5909 45.5374 18.8111 45.5374C18.4363 45.5374 18.1302 45.2323 18.1302 44.8575C18.1302 44.4826 18.4353 44.1765 18.8111 44.1765C19.1869 44.1765 19.492 44.4817 19.492 44.8575C19.492 45.6382 20.1249 46.2702 20.9048 46.2702C21.6846 46.2702 22.3175 45.6382 22.3175 44.8575C22.3175 42.9239 20.7447 41.3511 18.8111 41.3511C16.8776 41.3511 15.3047 42.9239 15.3047 44.8575C15.3047 46.7901 16.8776 48.3629 18.8111 48.3629Z" fill="black"/>
<path d="M40.1677 48.3629C40.9476 48.3629 41.5805 47.7309 41.5805 46.9502C41.5805 46.1694 40.9476 45.5374 40.1677 45.5374C39.7938 45.5374 39.4877 45.2323 39.4877 44.8575C39.4877 44.4826 39.7929 44.1765 40.1677 44.1765C40.5426 44.1765 40.8487 44.4817 40.8487 44.8575C40.8487 45.6382 41.4816 46.2702 42.2614 46.2702C43.0412 46.2702 43.6741 45.6382 43.6741 44.8575C43.6741 42.9239 42.1013 41.3511 40.1677 41.3511C38.2351 41.3511 36.6623 42.9239 36.6623 44.8575C36.6623 46.7901 38.2351 48.3629 40.1677 48.3629Z" fill="black"/>
<path d="M63.2423 48.3629C64.0221 48.3629 64.655 47.7309 64.655 46.9502C64.655 46.1694 64.0221 45.5374 63.2423 45.5374C62.8665 45.5374 62.5604 45.2323 62.5604 44.8575C62.5604 44.4826 62.8656 44.1765 63.2423 44.1765C63.6162 44.1765 63.9223 44.4817 63.9223 44.8575C63.9223 45.6382 64.5552 46.2702 65.335 46.2702C66.1149 46.2702 66.7478 45.6382 66.7478 44.8575C66.7478 42.9239 65.1749 41.3511 63.2423 41.3511C61.3088 41.3511 59.735 42.9239 59.735 44.8575C59.735 46.7901 61.3088 48.3629 63.2423 48.3629Z" fill="black"/>
<path d="M18.8111 58.4771C16.8776 58.4771 15.3047 60.0499 15.3047 61.9825C15.3047 63.2577 15.9988 64.435 17.1168 65.0538C17.3334 65.1734 17.5679 65.2308 17.8005 65.2308C18.2969 65.2308 18.78 64.9681 19.0371 64.5019C19.4148 63.819 19.1681 62.9592 18.4852 62.5815C18.3129 62.4864 18.1302 62.2792 18.1302 61.9825C18.1302 61.6076 18.4353 61.3025 18.8111 61.3025C19.1869 61.3025 19.492 61.6076 19.492 61.9825C19.492 62.7633 20.1249 63.3952 20.9048 63.3952C21.6846 63.3952 22.3175 62.7633 22.3175 61.9825C22.3165 60.0499 20.7437 58.4771 18.8111 58.4771Z" fill="black"/>
<path d="M40.1677 65.4889C40.9476 65.4889 41.5805 64.8569 41.5805 64.0762C41.5805 63.2954 40.9476 62.6634 40.1677 62.6634C39.7938 62.6634 39.4877 62.3583 39.4877 61.9825C39.4877 61.6067 39.7929 61.3025 40.1677 61.3025C40.5426 61.3025 40.8487 61.6076 40.8487 61.9825C40.8487 62.7633 41.4816 63.3952 42.2614 63.3952C43.0412 63.3952 43.6741 62.7633 43.6741 61.9825C43.6741 60.0499 42.1013 58.4771 40.1677 58.4771C38.2351 58.4771 36.6623 60.0499 36.6623 61.9825C36.6623 63.916 38.2351 65.4889 40.1677 65.4889Z" fill="black"/>
<path d="M63.2423 65.4889C64.0221 65.4889 64.655 64.8569 64.655 64.0762C64.655 63.2954 64.0221 62.6634 63.2423 62.6634C62.8665 62.6634 62.5604 62.3583 62.5604 61.9825C62.5604 61.6067 62.8656 61.3025 63.2423 61.3025C63.6162 61.3025 63.9223 61.6076 63.9223 61.9825C63.9223 62.7633 64.5552 63.3952 65.335 63.3952C66.1149 63.3952 66.7478 62.7633 66.7478 61.9825C66.7478 60.0499 65.1749 58.4771 63.2423 58.4771C61.3088 58.4771 59.735 60.0499 59.735 61.9825C59.735 63.916 61.3088 65.4889 63.2423 65.4889Z" fill="black"/>
<path d="M83.0204 48.3629C83.8002 48.3629 84.4331 47.7309 84.4331 46.9502C84.4331 46.1694 83.8002 45.5374 83.0204 45.5374C82.6446 45.5374 82.3385 45.2323 82.3385 44.8575C82.3385 44.4826 82.6437 44.1765 83.0204 44.1765C83.3943 44.1765 83.7004 44.4817 83.7004 44.8575C83.7004 45.6382 84.3333 46.2702 85.1131 46.2702C85.893 46.2702 86.5259 45.6382 86.5259 44.8575C86.5259 42.9239 84.953 41.3511 83.0204 41.3511C81.0869 41.3511 79.5131 42.9239 79.5131 44.8575C79.5131 46.7901 81.0869 48.3629 83.0204 48.3629Z" fill="black"/>
<path d="M83.0204 65.4889C83.8002 65.4889 84.4331 64.8569 84.4331 64.0762C84.4331 63.2954 83.8002 62.6634 83.0204 62.6634C82.6446 62.6634 82.3385 62.3583 82.3385 61.9825C82.3385 61.6067 82.6437 61.3025 83.0204 61.3025C83.3943 61.3025 83.7004 61.6076 83.7004 61.9825C83.7004 62.7633 84.3333 63.3952 85.1131 63.3952C85.893 63.3952 86.5259 62.7633 86.5259 61.9825C86.5259 60.0499 84.953 58.4771 83.0204 58.4771C81.0869 58.4771 79.5131 60.0499 79.5131 61.9825C79.5131 63.916 81.0869 65.4889 83.0204 65.4889Z" fill="black"/>
</svg>
