<svg width="100" height="100" viewBox="0 0 100 100" fill="none" xmlns="http://www.w3.org/2000/svg">
<path d="M43.75 53.75H16.25C15.5588 53.75 15 54.31 15 55V83.75C15 84.44 15.5588 85 16.25 85H43.75C44.4412 85 45 84.44 45 83.75V55C45 54.31 44.4412 53.75 43.75 53.75ZM28.75 82.5H17.5V56.25H28.75V82.5ZM42.5 82.5H31.25V56.25H42.5V82.5Z" fill="black"/>
<path d="M56.25 15H28.75C28.0588 15 27.5 15.56 27.5 16.25V45C27.5 45.69 28.0588 46.25 28.75 46.25H56.25C56.9412 46.25 57.5 45.69 57.5 45V16.25C57.5 15.56 56.9412 15 56.25 15ZM41.25 43.75H30V17.5H41.25V43.75ZM55 43.75H43.75V17.5H55V43.75Z" fill="black"/>
<path d="M81.25 53.75H53.75C53.0588 53.75 52.5 54.31 52.5 55V83.75C52.5 84.44 53.0588 85 53.75 85H81.25C81.9412 85 82.5 84.44 82.5 83.75V55C82.5 54.31 81.9412 53.75 81.25 53.75ZM66.25 82.5H55V56.25H66.25V82.5ZM80 82.5H68.75V56.25H80V82.5Z" fill="black"/>
<path d="M90 12.5V10H56.25H55H28.75C25.3038 10 22.5 12.8038 22.5 16.25V45C22.5 46.4125 22.9888 47.7025 23.7825 48.75H16.25C12.8038 48.75 10 51.5538 10 55V83.75C10 87.1962 12.8038 90 16.25 90H43.75C45.8013 90 47.61 88.9925 48.75 87.4613C49.89 88.9925 51.6987 90 53.75 90H78.75H81.25H90V87.5H86.2175C87.0112 86.4525 87.5 85.1625 87.5 83.75V55C87.5 53.5875 87.0112 52.2975 86.2175 51.25H90V48.75H87.5V12.5H90ZM77.5 12.5H80V48.75H77.5V12.5ZM72.5 12.5H75V48.75H72.5V12.5ZM67.5 12.5H70V48.75H67.5V12.5ZM61.2175 12.5H65V48.75H61.2175C62.0112 47.7025 62.5 46.4125 62.5 45V16.25C62.5 14.8375 62.0112 13.5475 61.2175 12.5ZM47.5 83.75C47.5 85.8175 45.8175 87.5 43.75 87.5H16.25C14.1825 87.5 12.5 85.8175 12.5 83.75V55C12.5 52.9325 14.1825 51.25 16.25 51.25H28.75H43.75C45.8175 51.25 47.5 52.9325 47.5 55V83.75ZM48.75 51.2887C48.74 51.275 48.7288 51.2637 48.7175 51.25H48.7825C48.7725 51.2637 48.76 51.275 48.75 51.2887ZM43.75 48.75H28.75C26.6825 48.75 25 47.0675 25 45V16.25C25 14.1825 26.6825 12.5 28.75 12.5H55H56.25C58.3175 12.5 60 14.1825 60 16.25V45C60 47.0675 58.3175 48.75 56.25 48.75H53.75H43.75ZM85 83.75C85 85.8175 83.3175 87.5 81.25 87.5H78.75H53.75C51.6825 87.5 50 85.8175 50 83.75V55C50 52.9325 51.6825 51.25 53.75 51.25H56.25H77.5H81.25C83.3175 51.25 85 52.9325 85 55V83.75ZM85 48.75H82.5V12.5H85V48.75Z" fill="black"/>
<path d="M38.75 28.75H36.25V32.5H38.75V28.75Z" fill="black"/>
<path d="M48.75 28.75H46.25V32.5H48.75V28.75Z" fill="black"/>
<path d="M26.25 67.5H23.75V71.25H26.25V67.5Z" fill="black"/>
<path d="M36.25 67.5H33.75V71.25H36.25V67.5Z" fill="black"/>
<path d="M63.75 67.5H61.25V71.25H63.75V67.5Z" fill="black"/>
<path d="M73.75 67.5H71.25V71.25H73.75V67.5Z" fill="black"/>
</svg>
