<svg width="100" height="100" viewBox="0 0 100 100" fill="none" xmlns="http://www.w3.org/2000/svg">
<path d="M85.1312 31.5051L54.541 9.61051C51.7861 7.6152 47.7388 7.31632 44.5453 9.61051L36.388 15.4493C34.4878 16.8094 36.4866 19.7271 38.3868 18.3669C38.3885 18.3669 38.3885 18.3652 38.3885 18.3652L46.5441 12.528C48.4637 11.2004 50.7518 11.2694 52.5422 12.528L83.1324 34.4226C84.9186 35.8155 84.9297 37.9186 83.988 39.3834L50.5434 15.4458C49.9816 15.0387 49.161 14.9871 48.5429 15.4458L15.1 39.3834C14.1677 37.9761 14.1369 35.784 15.9539 34.4244L25.5401 27.5615C27.4377 26.2034 25.4389 23.2859 23.5413 24.6439L13.9551 31.5051C10.2778 34.3447 10.4348 38.7418 12.2438 41.4283C13.3358 43.0497 15.4606 43.4116 17.0971 42.3028L23.9555 37.3938L27.4513 57.9027H26.0174C25.055 57.9027 24.2748 58.7003 24.2748 59.6839V68.5899C24.2748 69.5735 25.055 70.3711 26.0174 70.3711H44.3151V90.855C44.3151 91.8386 45.0952 92.6363 46.0577 92.6363H53.0282C53.9907 92.6363 54.7708 91.8386 54.7708 90.855V70.3711H73.0685C74.0309 70.3711 74.8111 69.5735 74.8111 68.5899V59.6839C74.8111 58.7003 74.0309 57.9027 73.0685 57.9027H71.5313L75.1112 37.3799L81.989 42.3027C83.5468 43.3771 85.6086 43.1275 86.8422 41.4281C88.8311 38.6886 88.595 33.9999 85.1312 31.5051ZM49.5431 47.1557C47.2845 47.1557 45.2538 48.4386 44.2436 50.5037L40.6242 57.9027H38.0712L33.6507 31.5408H65.4276L60.9086 57.9027H58.4617L54.8423 50.5037C53.8324 48.4386 51.8019 47.1557 49.5431 47.1557ZM54.5654 57.9027H44.5209L47.361 52.0966C47.7832 51.2335 48.599 50.7182 49.5431 50.7182C50.4873 50.7182 51.303 51.2336 51.7252 52.0966L54.5654 57.9027ZM49.5431 19.0794L61.9761 27.9783H37.1101L49.5431 19.0794ZM27.1087 35.137L30.331 32.8307L34.5352 57.9028H30.9891L27.1087 35.137ZM51.2858 89.0738H47.8005V70.3711H51.2858V89.0738ZM71.326 66.8087H27.7602V61.4651H71.326V66.8087ZM67.9913 57.9027H64.4472L68.7461 32.8239L71.9642 35.1272L67.9913 57.9027ZM29.2209 21.5054C29.2209 20.5217 30.0011 19.7242 30.9635 19.7242C31.926 19.7242 32.7062 20.5217 32.7062 21.5054C32.7062 22.4892 31.926 23.2866 30.9635 23.2866C30.0012 23.2866 29.2209 22.4892 29.2209 21.5054Z" fill="black"/>
</svg>
