<svg width="100" height="100" viewBox="0 0 100 100" fill="none" xmlns="http://www.w3.org/2000/svg">
<path d="M53.6975 63.4297H45.3026C43.9115 63.4297 42.7836 64.7021 42.7836 66.2715V79.2358C42.7836 80.8052 43.9115 82.0776 45.3026 82.0776H53.6975C55.0886 82.0776 56.2165 80.8052 56.2165 79.2358V66.2715C56.2165 64.7021 55.0886 63.4297 53.6975 63.4297ZM51.1787 76.394H47.8216V69.1133H51.1787V76.394Z" fill="black"/>
<path d="M61.9238 54.3418C62.561 54.3418 63.1747 54.0694 63.641 53.5792L71.2014 45.6321C72.1705 44.6113 72.2632 42.9204 71.4487 41.7744L60.6287 26.5587C60.1553 25.8929 59.4419 25.5042 58.6863 25.4966C59.7566 23.6008 60.3797 21.3538 60.3797 18.9444V15.2341C60.3795 8.48827 55.5148 3 49.5352 3H49.4648C43.4852 3 38.6204 8.48827 38.6204 15.2341V18.9444C38.6204 21.3538 39.2436 23.6008 40.3138 25.4966C39.5581 25.5042 38.8448 25.8929 38.3714 26.5587L27.5514 41.7744C26.734 42.9236 26.8326 44.6147 27.7991 45.6319L35.3594 53.5791C35.8257 54.0692 36.4393 54.3416 37.0767 54.3416H41.7212V57.2914H38.5869C37.1957 57.2914 36.0679 58.5638 36.0679 60.1332V85.4121H33.1073C31.7161 85.4121 30.5883 86.6845 30.5883 88.2539V97.1582C30.5883 98.7276 31.7161 100 33.1073 100H65.8932C67.2843 100 68.4122 98.7276 68.4122 97.1582V88.2539C68.4122 86.6845 67.2843 85.4121 65.8932 85.4121H62.9326V60.1334C62.9326 58.564 61.8047 57.2916 60.4136 57.2916H57.279V54.3418H61.9238ZM43.6583 15.2341C43.6583 11.6222 46.2631 8.68359 49.4646 8.68359H49.535C52.7367 8.68359 55.3415 11.6222 55.3415 15.2341V18.9444C55.3415 22.5563 52.7367 25.4951 49.535 25.4951H49.4646C46.2629 25.4951 43.6583 22.5563 43.6583 18.9444V15.2341ZM34.7662 40.7108L41.5446 31.1787H46.9809V32.9967C46.9809 34.5661 48.1087 35.8385 49.4999 35.8385C50.891 35.8385 52.0189 34.5661 52.0189 32.9967V31.1787H57.4552L64.2336 40.7108H34.7662ZM63.3739 91.0957V94.3164H35.6259V91.0957C36.7961 91.0957 62.2348 91.0957 63.3739 91.0957ZM57.8944 62.9752V85.4121H41.1057V62.9752C43.0184 62.9752 55.7168 62.9752 57.8944 62.9752ZM46.7591 57.2916V54.3418H52.2409V57.2916H46.7591ZM38.0682 48.6582L35.9147 46.3946H63.0852L60.9318 48.6582C59.8407 48.6582 39.3231 48.6582 38.0682 48.6582Z" fill="black"/>
</svg>
