<svg width="100" height="100" viewBox="0 0 100 100" fill="none" xmlns="http://www.w3.org/2000/svg">
<path d="M90 64.5V24.5C90 22.8705 88.9548 21.4809 87.5 20.965V19.5C87.5 18.8097 86.9403 18.25 86.25 18.25C85.5597 18.25 85 18.8097 85 19.5V20.75H71.25V18.25H73.75C74.4403 18.25 75 17.6903 75 17V13.7188C75 12.7711 74.2289 12 73.2812 12H66.7188C65.7711 12 65 12.7711 65 13.7188V17C65 17.6903 65.5597 18.25 66.25 18.25H68.75V20.75H31.25V18.25H33.75C34.4403 18.25 35 17.6903 35 17V13.7188C35 12.7711 34.2289 12 33.2812 12H26.7188C25.7711 12 25 12.7711 25 13.7188V17C25 17.6903 25.5597 18.25 26.25 18.25H28.75V20.75H15V19.5C15 18.8097 14.4403 18.25 13.75 18.25C13.0597 18.25 12.5 18.8097 12.5 19.5V20.965C11.0452 21.4809 10 22.8705 10 24.5V64.5C10 66.1295 11.0452 67.5191 12.5 68.035V85.75H11.25C10.5597 85.75 10 86.3097 10 87C10 87.6903 10.5597 88.25 11.25 88.25H16.25C16.9403 88.25 17.5 87.6903 17.5 87C17.5 86.3097 16.9403 85.75 16.25 85.75H15V68.25H85V85.75H83.75C83.0597 85.75 82.5 86.3097 82.5 87C82.5 87.6903 83.0597 88.25 83.75 88.25H88.75C89.4403 88.25 90 87.6903 90 87C90 86.3097 89.4403 85.75 88.75 85.75H87.5V68.035C88.9548 67.5191 90 66.1295 90 64.5ZM67.5 14.5H72.5V15.75H67.5V14.5ZM27.5 14.5H32.5V15.75H27.5V14.5ZM12.5 24.5C12.5 23.8108 13.0608 23.25 13.75 23.25H86.25C86.9392 23.25 87.5 23.8108 87.5 24.5V64.5C87.5 65.1892 86.9392 65.75 86.25 65.75H13.75C13.0608 65.75 12.5 65.1892 12.5 64.5V24.5Z" fill="black"/>
<path d="M63.75 44.5C63.75 36.9183 57.5817 30.75 50 30.75C42.4183 30.75 36.25 36.9183 36.25 44.5C36.25 52.0817 42.4183 58.25 50 58.25C57.5817 58.25 63.75 52.0817 63.75 44.5ZM38.75 44.5C38.75 38.2967 43.7967 33.25 50 33.25C56.2033 33.25 61.25 38.2967 61.25 44.5C61.25 50.7033 56.2033 55.75 50 55.75C43.7967 55.75 38.75 50.7033 38.75 44.5Z" fill="black"/>
<path d="M51.25 52C51.9403 52 52.5 51.4403 52.5 50.75C52.5 50.0597 51.9403 49.5 51.25 49.5V42C51.9403 42 52.5 41.4403 52.5 40.75C52.5 40.0597 51.9403 39.5 51.25 39.5H48.75C48.0597 39.5 47.5 40.0597 47.5 40.75C47.5 41.4403 48.0597 42 48.75 42V49.5C48.0597 49.5 47.5 50.0597 47.5 50.75C47.5 51.4403 48.0597 52 48.75 52H51.25Z" fill="black"/>
<path d="M50 38.25C50.3297 38.25 50.6516 38.1172 50.8844 37.8844C51.1172 37.6516 51.25 37.3297 51.25 37C51.25 36.6719 51.1172 36.3484 50.8844 36.1156C50.6516 35.8828 50.3297 35.75 50 35.75C49.6703 35.75 49.3484 35.8828 49.1156 36.1156C48.8828 36.3484 48.75 36.6719 48.75 37C48.75 37.3297 48.8828 37.6516 49.1156 37.8844C49.3484 38.1172 49.6703 38.25 50 38.25Z" fill="black"/>
<path d="M70 28.25H72.4998C73.1902 28.25 73.7498 27.6903 73.7498 27C73.7498 26.3097 73.1902 25.75 72.4998 25.75H70C69.3097 25.75 68.75 26.3097 68.75 27C68.75 27.6903 69.3097 28.25 70 28.25Z" fill="black"/>
<path d="M16.25 63.25H22.5003C23.1906 63.25 23.7503 62.6903 23.7503 62C23.7503 61.3097 23.1906 60.75 22.5003 60.75H17.5V28.25H64.9998C65.6902 28.25 66.2498 27.6903 66.2498 27C66.2498 26.3097 65.6902 25.75 64.9998 25.75H16.25C15.5597 25.75 15 26.3097 15 27V62C15 62.6903 15.5597 63.25 16.25 63.25Z" fill="black"/>
<path d="M77.5 28.25H82.5V60.75H27.5005C26.8101 60.75 26.2505 61.3097 26.2505 62C26.2505 62.6903 26.8101 63.25 27.5005 63.25H83.75C84.4403 63.25 85 62.6903 85 62V27C85 26.3097 84.4403 25.75 83.75 25.75H77.5C76.8097 25.75 76.25 26.3097 76.25 27C76.25 27.6903 76.8097 28.25 77.5 28.25Z" fill="black"/>
</svg>
