<svg width="100" height="100" viewBox="0 0 100 100" fill="none" xmlns="http://www.w3.org/2000/svg">
<path d="M60.3416 75.2187H85.0112L74.8262 54.3392L65.9909 72.4581C65.34 73.7918 63.7297 74.348 62.3959 73.6959C61.0622 73.0435 60.5075 71.436 61.1583 70.1008L72.4106 47.0299C72.8605 46.1067 73.7983 45.5215 74.8262 45.5215C75.8542 45.5215 76.7903 46.1069 77.2417 47.0299L91.7279 76.7273C92.1341 77.5601 92.0831 78.5445 91.5911 79.3307C91.1018 80.1169 90.2398 80.593 89.3123 80.593H60.3416C58.8565 80.593 57.6537 79.3917 57.6537 77.9066C57.6537 76.4215 58.8565 75.2187 60.3416 75.2187Z" fill="black"/>
<path d="M74.8263 42.3454C68.5362 42.3454 63.4196 37.2289 63.4196 30.936C63.4196 24.6459 68.5362 19.5293 74.8263 19.5293C81.1164 19.5293 86.2343 24.6459 86.2343 30.936C86.2343 37.2276 81.1163 42.3454 74.8263 42.3454ZM74.8263 24.9051C71.5007 24.9051 68.7954 27.6104 68.794 30.9375C68.794 34.266 71.4992 36.9728 74.8263 36.9728C78.1534 36.9728 80.8602 34.2645 80.8602 30.9375C80.86 27.6104 78.1518 24.9051 74.8263 24.9051Z" fill="black"/>
<path d="M25.1724 42.3454C18.8808 42.3454 13.7657 37.2289 13.7657 30.936C13.7657 24.6459 18.8823 19.5293 25.1724 19.5293C31.4625 19.5293 36.5789 24.6459 36.5789 30.936C36.5791 37.2276 31.4625 42.3454 25.1724 42.3454ZM25.1724 24.9051C21.8453 24.9051 19.14 27.6104 19.14 30.9375C19.14 34.266 21.8453 36.9728 25.1724 36.9728C28.4995 36.9728 31.2048 34.2645 31.2048 30.9375C31.2048 27.6104 28.498 24.9051 25.1724 24.9051Z" fill="black"/>
<path d="M10.6878 45.5215H39.6572C40.5832 45.5215 41.4452 45.9976 41.9359 46.7838C42.4281 47.57 42.479 48.5544 42.0727 49.3872L27.5865 79.0846C27.1367 80.0078 26.1989 80.593 25.171 80.593C24.1431 80.593 23.2053 80.0076 22.7555 79.0876L11.5047 56.0181C10.8538 54.6829 11.4085 53.0739 12.7422 52.4231C14.0788 51.7722 15.6878 52.3284 16.3372 53.6608L25.171 71.7768L35.356 50.8973H10.6879C9.20281 50.8973 8.00004 49.6945 8.00004 48.2094C8.00004 46.7241 9.20264 45.5215 10.6878 45.5215Z" fill="black"/>
<path d="M49.9994 9C51.4846 9 52.6873 10.2028 52.6873 11.6879V88.4356C52.6873 89.9207 51.4846 91.1235 49.9994 91.1235C48.5158 91.1235 47.313 89.9207 47.3115 88.4371V11.6879C47.3115 10.2028 48.5143 9 49.9994 9Z" fill="black"/>
</svg>
